<svg width="1024" height="1024" viewBox="0 0 1024 1024" fill="none" xmlns="http://www.w3.org/2000/svg">
  <defs>
    <!-- App tile background: matches the app's dark navy theme -->
    <linearGradient id="tile" x1="512" y1="64" x2="512" y2="960" gradientUnits="userSpaceOnUse">
      <stop offset="0" stop-color="#1b2230"/>
      <stop offset="1" stop-color="#0c0f15"/>
    </linearGradient>
    <!-- Blue accent used on the mic + waves -->
    <linearGradient id="accent" x1="512" y1="250" x2="512" y2="700" gradientUnits="userSpaceOnUse">
      <stop offset="0" stop-color="#8ab4ff"/>
      <stop offset="1" stop-color="#5b93ff"/>
    </linearGradient>
    <radialGradient id="glow" cx="512" cy="430" r="360" gradientUnits="userSpaceOnUse">
      <stop offset="0" stop-color="#6aa0ff" stop-opacity="0.30"/>
      <stop offset="1" stop-color="#6aa0ff" stop-opacity="0"/>
    </radialGradient>
  </defs>

  <!--
    macOS app-icon grid (Big Sur+): the rounded tile must be 824x824 centred in
    the 1024 canvas (~100px margin each side), otherwise the icon looks oversized
    next to standard dock icons. The artwork below is authored on a 896x896 tile,
    so scale the whole group by 824/896 about the centre to land on the grid.
  -->
  <g transform="translate(512 512) scale(0.9196428571) translate(-512 -512)">
    <!-- Rounded app tile -->
    <rect x="64" y="64" width="896" height="896" rx="200" fill="url(#tile)"/>
    <rect x="64.5" y="64.5" width="895" height="895" rx="199.5" fill="none" stroke="#2a3242" stroke-width="1"/>
    <!-- Soft accent glow behind the mark -->
    <rect x="64" y="64" width="896" height="896" rx="200" fill="url(#glow)"/>

    <!-- Note "text" lines to the right of the mic — voice becoming notes -->
    <g stroke="#3a465c" stroke-linecap="round">
      <line x1="600" y1="372" x2="752" y2="372" stroke-width="26"/>
      <line x1="600" y1="446" x2="788" y2="446" stroke-width="26"/>
      <line x1="600" y1="520" x2="724" y2="520" stroke-width="26"/>
    </g>

    <!-- Microphone -->
    <g>
      <!-- capsule -->
      <rect x="380" y="300" width="120" height="248" rx="60" fill="url(#accent)"/>
      <!-- inner grille hint -->
      <g stroke="#1b2230" stroke-width="10" stroke-linecap="round" opacity="0.55">
        <line x1="408" y1="356" x2="472" y2="356"/>
        <line x1="408" y1="402" x2="472" y2="402"/>
        <line x1="408" y1="448" x2="472" y2="448"/>
      </g>
      <!-- cradle arc -->
      <path d="M324 472 a116 116 0 0 0 232 0" fill="none" stroke="url(#accent)" stroke-width="30" stroke-linecap="round"/>
      <!-- stand -->
      <line x1="440" y1="588" x2="440" y2="660" stroke="url(#accent)" stroke-width="30" stroke-linecap="round"/>
      <line x1="368" y1="664" x2="512" y2="664" stroke="url(#accent)" stroke-width="30" stroke-linecap="round"/>
    </g>
  </g>
</svg>
